<svg version="1.0" xmlns="http://www.w3.org/2000/svg" width="1066.667" height="1066.667" viewBox="0 0 800.000000 800.000000"><path d="M32 281.5V306h54v-49H32v24.5zM335 318v29h-36v37h36v40.7c0 22.5.5 45.7 1 51.8 3.2 36 19.7 55.9 51.9 62.8 7.6 1.6 13.4 2 28.3 2.1 10.2.1 19-.2 19.4-.7.4-.4 1.1-6.7 1.5-14 .5-7.2 1-15.2 1.2-17.7l.4-4.5h-14.1c-8.6 0-15.7-.5-18.3-1.3-5.7-1.7-12.2-6.8-15.5-12.2-5.5-9-5.8-12.2-5.8-61.7V384h51v-37h-51v-58h-50v29zM201.4 343.5c-9.7 1.7-13.6 3.1-22.8 7.8-7.8 4-17.1 12-22.9 19.7l-2.6 3.5-.1-13.8V347h-48v192h48.9l.3-60.3c.3-58.2.4-60.4 2.5-66.4 4.3-12.9 11.5-21.1 22.8-26.5 12-5.6 29.4-5.9 39.5-.8 5.2 2.6 11.1 9.9 13.3 16.3 3.1 9.1 3.7 21.8 3.7 80.4V539h49v-64.1c0-53.1-.3-66-1.6-74.7-5-34.2-21.4-52.1-51.9-56.8-10.9-1.7-20.6-1.7-30.1.1zM559.5 343.5c-15.5 1.9-25.6 5.1-35.1 11.1-5.9 3.8-15.6 14-18.7 19.9l-2.2 4-.3-15.8-.3-15.7H456v192h49v-53.3c0-29.2.5-56.1 1-59.6 2.7-18.9 12.7-30.7 31.6-37 4.5-1.5 38.3-6.1 44.7-6.1.2 0-2.9-40.2-3.2-40.8-.2-.5-10.2.1-19.6 1.3zM659.5 343.6c-24.6 4.6-41.2 13.3-54.6 28.6-17 19.2-24.1 39.7-24.1 69.8 0 24.8 5.2 43.7 16.6 60.9 13.4 20.1 33.8 32.5 61.6 37.6 13.5 2.5 35.1 1.7 48.5-1.9 28.7-7.6 48.2-24 59.8-50.1 6.3-14.3 8.9-27.5 8.9-46.5 0-20.8-3-34.6-10.7-50-12.6-25-30.7-39.3-59.4-46.7-12.4-3.2-34.5-4-46.6-1.7zm32.6 38.2c12.4 3.5 21.9 11.3 27.8 22.9 5.5 11.1 6.6 16.8 6.6 37.3 0 19.9-1 25.7-6.1 36.4-9.4 19.9-31.2 29.5-54.4 24-7.3-1.7-17.2-6.9-21.2-11.1-4.7-4.9-9.5-14.1-11.9-22.6-2.1-7.3-2.4-10.3-2.4-26.7 0-20.3 1-26 6.5-37.6 3.5-7.2 12.8-16.5 19.7-19.6 11.1-5 24.2-6.1 35.4-3zM34 443v96h50V347H34v96z"/></svg>
