<svg xmlns="http://www.w3.org/2000/svg" viewBox="0 0 400 400" width="100" height="100"><style>tspan { white-space:pre }.shp0 { fill: #ff9292 } .shp1 { fill: #ffffff } </style><path class="shp0" d="M35 0L365 0C384.36 0 400 15.64 400 35L400 365C400 384.36 384.36 400 365 400L35 400C15.64 400 0 384.36 0 365L0 35C0 15.64 15.64 0 35 0Z" /><path fill-rule="evenodd" class="shp1" d="M322.91 117.75C327.65 119.74 330.6 124.62 330.6 129.78L330.6 259.25C330.6 266.8 324.47 272.23 317.44 272.23C316.05 272.23 314.63 272.02 313.22 271.57C300.61 267.57 288.01 265.97 275.41 265.97C225.14 265.97 174.87 291.42 124.6 291.42C108.77 291.42 92.93 288.89 77.09 282.25C72.36 280.26 69.41 275.38 69.41 270.22L69.41 140.75C69.41 133.2 75.54 127.76 82.57 127.76C83.96 127.76 85.38 127.98 86.79 128.42C99.4 132.42 112 134.02 124.6 134.02C174.87 134.02 225.13 108.58 275.4 108.58C291.24 108.58 307.08 111.11 322.91 117.75ZM89 174.16C101.65 174.16 112.19 165.12 114.59 153.13C105.78 152.57 97.21 151.54 89 149.48L89 174.16ZM89 265.8C97.21 268.78 105.8 270.62 115 271.36C114.37 257.43 103.02 246.3 89 246.3L89 265.8ZM232.65 200C232.65 178.36 218.03 160.82 200 160.82C181.97 160.82 167.35 178.36 167.35 200C167.35 221.63 181.97 239.18 200 239.18C218.03 239.18 232.65 221.64 232.65 200ZM311.01 226.96C300.06 228.35 291.24 236.43 288.84 247.07C296.44 247.72 303.86 248.73 311.01 250.52L311.01 226.96ZM311.01 134.2C303.78 131.58 296.21 129.92 288.23 129.04C288.62 142.04 298.4 152.56 311.01 154.16L311.01 134.2Z" /></svg>