<svg xmlns="http://www.w3.org/2000/svg" viewBox="0 0 400 400" width="100" height="100"><style>tspan { white-space:pre }.shp0 { fill: #ff9292 } .shp1 { fill: #ffffff } </style><path class="shp0" d="M35 0L365 0C384.36 0 400 15.64 400 35L400 365C400 384.36 384.36 400 365 400L35 400C15.64 400 0 384.36 0 365L0 35C0 15.64 15.64 0 35 0Z" /><path fill-rule="evenodd" class="shp1" d="M279.94 97.86L280.2 303.84C280.22 316.97 269.59 327.63 256.46 327.64L145.55 327.78C132.43 327.8 121.77 317.17 121.75 304.05L121.49 98.06C121.47 84.94 132.1 74.28 145.22 74.26L256.14 74.12C269.26 74.1 279.92 84.73 279.94 97.86ZM216.81 296C216.8 287.24 209.71 280.17 200.95 280.18C192.18 280.19 185.11 287.28 185.12 296.04C185.13 304.81 192.22 311.88 200.99 311.87C209.75 311.86 216.82 304.77 216.81 296Z" /></svg>