<svg xmlns="http://www.w3.org/2000/svg" viewBox="0 0 400 400" width="100" height="100"><style>tspan { white-space:pre }.shp0 { fill: #ff9292 } .shp1 { fill: #ffffff } </style><path class="shp0" d="M45 0L355 0C379.88 0 400 20.11 400 45L400 355C400 379.88 379.88 400 355 400L45 400C20.11 400 0 379.88 0 355L0 45C0 20.11 20.11 0 45 0Z" /><path class="shp1" d="M322.97 143.13L295.93 99.95C293.51 96.08 289.22 93.7 284.63 93.7L116.28 93.7C111.7 93.7 107.4 96.08 104.99 99.95L77.94 143.13C63.98 165.42 76.36 196.42 102.44 199.97C104.32 200.22 106.24 200.34 108.15 200.34C120.49 200.34 131.41 194.92 138.91 186.55C146.41 194.92 157.37 200.34 169.66 200.34C182 200.34 192.91 194.92 200.41 186.55C207.92 194.92 218.88 200.34 231.17 200.34C243.5 200.34 254.42 194.92 261.92 186.55C269.47 194.92 280.38 200.34 292.68 200.34C294.63 200.34 296.51 200.22 298.39 199.97C324.56 196.47 336.97 165.46 322.97 143.13L322.97 143.13ZM292.76 213.72C288.59 213.72 284.47 213.09 280.47 212.13L280.47 253.72L120.45 253.72L120.45 212.13C116.45 213.05 112.32 213.72 108.15 213.72C105.65 213.72 103.11 213.55 100.65 213.22C98.32 212.88 96.03 212.34 93.82 211.72L93.82 293.73C93.82 301.1 99.78 307.06 107.15 307.06L293.84 307.06C301.22 307.06 307.18 301.1 307.18 293.73L307.18 211.72C304.93 212.38 302.68 212.93 300.34 213.22C297.8 213.55 295.3 213.72 292.76 213.72Z" /></svg>